<svg width="80" height="80" viewBox="0 0 80 80" fill="none" xmlns="http://www.w3.org/2000/svg">
<g clip-path="url(#clip0_13_26)">
<path fill-rule="evenodd" clip-rule="evenodd" d="M40 69C56.0163 69 69 56.0163 69 40C69 23.9837 56.0163 11 40 11C23.9837 11 11 23.9837 11 40C11 56.0163 23.9837 69 40 69ZM70 40C70 56.5685 56.5685 70 40 70C23.4315 70 10 56.5685 10 40C10 23.4315 23.4315 10 40 10C56.5685 10 70 23.4315 70 40Z" fill="#FFF308" fill-opacity="0.2"/>
<path fill-rule="evenodd" clip-rule="evenodd" d="M39.8333 65C53.7325 65 65 53.7325 65 39.8333C65 25.9342 53.7325 14.6667 39.8333 14.6667C25.9341 14.6667 14.6666 25.9342 14.6666 39.8333C14.6666 53.7325 25.9341 65 39.8333 65ZM66.3333 39.8333C66.3333 54.4689 54.4689 66.3333 39.8333 66.3333C25.1978 66.3333 13.3333 54.4689 13.3333 39.8333C13.3333 25.1978 25.1978 13.3333 39.8333 13.3333C54.4689 13.3333 66.3333 25.1978 66.3333 39.8333Z" fill="#FFF308" fill-opacity="0.6"/>
<path fill-rule="evenodd" clip-rule="evenodd" d="M39.8333 62.3333C52.2597 62.3333 62.3333 52.2597 62.3333 39.8333C62.3333 27.4069 52.2597 17.3333 39.8333 17.3333C27.4069 17.3333 17.3333 27.4069 17.3333 39.8333C17.3333 52.2597 27.4069 62.3333 39.8333 62.3333Z" fill="#FFEC65"/>
</g>
<path d="M69.7147 30.451C69.7197 30.3013 69.7222 30.1509 69.7222 30C69.7222 22.6362 63.7403 16.6667 56.3611 16.6667C50.5075 16.6667 45.533 20.4232 43.7265 25.6522C42.429 24.9766 40.9537 24.5946 39.3889 24.5946C34.2036 24.5946 30 28.7894 30 33.964C30 39.1385 34.2036 43.3333 39.3889 43.3333L56.3791 43.3333H66.4722C70.2615 43.3333 73.3333 40.2679 73.3333 36.4865C73.3333 33.8755 71.8688 31.6058 69.7147 30.451Z" fill="white"/>
<path d="M31.1065 54.1998C31.1096 54.1071 31.1111 54.0141 31.1111 53.9206C31.1111 49.3621 27.4299 45.6667 22.8889 45.6667C19.2867 45.6667 16.2255 47.9921 15.1137 51.2292C14.3153 50.8109 13.4074 50.5744 12.4445 50.5744C9.25349 50.5744 6.66669 53.1712 6.66669 56.3745C6.66669 59.5778 9.25349 62.1746 12.4445 62.1746L22.9 62.1746H29.1111C31.443 62.1746 33.3334 60.2769 33.3334 57.9361C33.3334 56.3197 32.4321 54.9147 31.1065 54.1998Z" fill="white"/>
<defs>
<clipPath id="clip0_13_26">
<rect width="60" height="60" fill="white" transform="translate(10 10)"/>
</clipPath>
</defs>
</svg>
