<svg width="192" height="192" viewBox="0 0 192 192" fill="none" xmlns="http://www.w3.org/2000/svg">
<path fill-rule="evenodd" clip-rule="evenodd" d="M156 76.5714C156 77.076 155.992 77.5785 155.975 78.079C163.133 81.9395 168 89.5266 168 98.2548C168 110.896 157.792 121.143 145.2 121.143H130.032C129.548 119.79 128.599 118.595 127.255 117.821L125.944 117.066C126.133 114.723 124.99 112.371 122.814 111.118C120.624 109.857 117.987 110.058 116.042 111.418L110.61 108.4C110.61 108.4 115.008 105.34 116.097 104.621C118.035 105.947 120.642 106.133 122.814 104.882C125.014 103.616 126.157 101.222 125.936 98.8531C127.215 98.1027 127.255 98.1793 127.255 98.1793C130.261 96.4482 131.293 92.6025 129.555 89.6C127.818 86.5989 123.966 85.563 120.955 87.2969C120.955 87.2969 120.814 87.4059 119.592 88.0156C117.657 86.7139 115.071 86.5393 112.914 87.7813C110.732 89.0381 109.589 91.4039 109.787 93.7551C108.667 94.424 103.9 97.3173 103.9 97.3173C103.9 97.3173 103.912 91.1547 103.966 90.3092C106.059 89.2875 107.5 87.1438 107.5 84.6634C107.5 82.1535 106.021 79.9859 103.885 78.9796C103.916 77.878 103.9 77.4762 103.9 77.4762C103.9 74.014 101.076 71.2 97.6 71.2C94.1254 71.2 91.3003 74.0084 91.3003 77.4762C91.3003 77.4762 91.3158 77.6086 91.3058 78.9829C89.1741 79.9902 87.7004 82.1546 87.7004 84.6634C87.7004 87.1816 89.1887 89.3552 91.3359 90.3571C91.2772 92.0071 91.3003 97.3173 91.3003 97.3173C91.3003 97.3173 86.6011 94.5505 85.4174 93.7125C85.5993 91.3753 84.4571 89.0316 82.2857 87.7813C80.1212 86.535 77.5208 86.717 75.5832 88.0337C74.36 87.4182 74.2449 87.2969 74.2449 87.2969C71.2384 85.5658 67.3832 86.5975 65.6451 89.6C63.9078 92.6011 64.9339 96.4454 67.9451 98.1793C67.9451 98.1793 68.231 98.1785 69.2591 98.8946C69.0542 101.25 70.1973 103.622 72.3861 104.882C74.5671 106.138 77.1906 105.944 79.1327 104.6C79.7795 105.121 85.4174 108.4 85.4174 108.4L79.27 111.497C77.316 110.065 74.6208 109.831 72.3861 111.118C70.2116 112.37 69.0689 114.723 69.2566 117.066L67.9451 117.821C66.6022 118.594 65.6532 119.789 65.1692 121.143H55.2C37.9687 121.143 24 107.12 24 89.8224C24 72.5246 37.9687 58.5019 55.2 58.5019C60.3999 58.5019 65.3027 59.7789 69.6141 62.0375C75.6175 44.5574 92.1479 32 111.6 32C136.122 32 156 51.9553 156 76.5714ZM87.1957 121.143H91.3003V118.683L87.1957 121.143ZM103.868 121.143H107.826L103.859 118.859L103.868 121.143Z" fill="white"/>
<path fill-rule="evenodd" clip-rule="evenodd" d="M94.9848 127.895V87.9336H94.1159C92.6698 87.9336 91.4976 86.7639 91.4976 85.3275C91.4976 83.8881 92.6679 82.7213 94.1159 82.7213H94.9848V78.3712C94.9848 76.9354 96.1586 75.7715 97.6001 75.7715C99.0446 75.7715 100.216 76.9422 100.216 78.3712V82.7213H101.084C102.53 82.7213 103.703 83.891 103.703 85.3275C103.703 86.7668 102.532 87.9336 101.084 87.9336H100.216V127.895H101.084C102.53 127.895 103.703 129.065 103.703 130.501C103.703 131.941 102.532 133.107 101.084 133.107H100.216V137.458C100.216 138.893 99.0416 140.057 97.6001 140.057C96.1557 140.057 94.9848 138.887 94.9848 137.458V133.107H94.1159C92.6698 133.107 91.4976 131.938 91.4976 130.501C91.4976 129.062 92.6679 127.895 94.1159 127.895H94.9848Z" fill="white"/>
<path fill-rule="evenodd" clip-rule="evenodd" d="M81.543 95.667L116.273 115.648L116.707 114.898C117.43 113.65 119.033 113.223 120.281 113.941C121.532 114.661 121.961 116.254 121.237 117.504L120.803 118.254L124.583 120.429C125.831 121.147 126.256 122.742 125.535 123.986C124.813 125.232 123.21 125.657 121.968 124.943L118.187 122.768L117.753 123.518C117.03 124.766 115.427 125.192 114.179 124.474C112.928 123.754 112.499 122.161 113.223 120.912L113.657 120.162L78.9276 100.181L78.4932 100.931C77.7702 102.179 76.1674 102.605 74.919 101.887C73.6681 101.168 73.2392 99.5743 73.9632 98.3246L74.3976 97.5748L70.617 95.3998C69.3692 94.6819 68.9446 93.0869 69.6654 91.8429C70.3876 90.5964 71.9905 90.1712 73.2324 90.8857L77.013 93.0608L77.4475 92.311C78.1705 91.0631 79.7732 90.6363 81.0216 91.3545C82.2725 92.0742 82.7014 93.6675 81.9774 94.9171L81.543 95.667Z" fill="white"/>
<path fill-rule="evenodd" clip-rule="evenodd" d="M116.273 100.181L81.5429 120.162L81.9774 120.912C82.7004 122.159 82.2699 123.756 81.0215 124.474C79.7706 125.194 78.1714 124.767 77.4474 123.518L77.013 122.768L73.2324 124.943C71.9846 125.661 70.3861 125.23 69.6653 123.986C68.9431 122.739 69.3751 121.143 70.617 120.429L74.3976 118.254L73.9632 117.504C73.2401 116.256 73.6706 114.66 74.919 113.941C76.1699 113.222 77.7691 113.648 78.4931 114.898L78.9276 115.648L113.657 95.667L113.223 94.9172C112.5 93.6693 112.93 92.0728 114.179 91.3546C115.43 90.6349 117.029 91.0614 117.753 92.311L118.187 93.0608L121.968 90.8858C123.216 90.1679 124.814 90.599 125.535 91.8429C126.257 93.0894 125.825 94.6853 124.583 95.3998L120.803 97.5749L121.237 98.3247C121.96 99.5726 121.53 101.169 120.281 101.887C119.03 102.607 117.431 102.18 116.707 100.931L116.273 100.181Z" fill="white"/>
<path fill-rule="evenodd" clip-rule="evenodd" d="M81.256 130.8C79.155 130.117 76.8984 131.267 76.2157 133.368L70.6534 150.487C69.9707 152.588 71.1205 154.844 73.2216 155.527C75.3226 156.21 77.5792 155.06 78.2619 152.959L83.8242 135.84C84.5068 133.739 83.357 131.482 81.256 130.8ZM108.427 133.368C109.11 131.267 111.367 130.117 113.468 130.8C115.569 131.482 116.718 133.739 116.036 135.84L107.692 161.518C107.01 163.619 104.753 164.769 102.652 164.087C100.551 163.404 99.4011 161.147 100.084 159.046L108.427 133.368ZM87.8943 146.993C88.5769 144.892 90.8335 143.742 92.9346 144.425C95.0356 145.107 96.1854 147.364 95.5027 149.465L88.1165 172.197C87.4339 174.298 85.1773 175.448 83.0762 174.766C80.9752 174.083 79.8254 171.826 80.5081 169.725L87.8943 146.993Z" fill="#B4F5F2"/>
</svg>
