<svg width="192" height="192" viewBox="0 0 192 192" fill="none" xmlns="http://www.w3.org/2000/svg">
<path fill-rule="evenodd" clip-rule="evenodd" d="M155.975 78.079C155.992 77.5785 156 77.076 156 76.5714C156 51.9553 136.122 32 111.6 32C92.1479 32 75.6175 44.5574 69.6141 62.0375C65.3027 59.7789 60.3999 58.5019 55.2 58.5019C37.9687 58.5019 24 72.5246 24 89.8224C24 101.27 30.1177 111.283 39.2502 116.747C39.3527 115.942 39.6137 115.145 40.0451 114.4C41.7832 111.397 45.6384 110.366 48.6449 112.097C48.6449 112.097 48.76 112.218 49.9832 112.834C51.9208 111.517 54.5212 111.335 56.6857 112.581C58.8571 113.832 59.9993 116.175 59.8174 118.513C60.5421 119.026 62.5843 120.261 64.0593 121.143H65.6973C65.6938 119.53 65.693 116.364 65.7359 115.157C63.5887 114.155 62.1004 111.982 62.1004 109.463C62.1004 106.955 63.5741 104.79 65.7058 103.783C65.7158 102.409 65.7003 102.276 65.7003 102.276C65.7003 98.8084 68.5254 96 72 96C75.4763 96 78.2997 98.814 78.2997 102.276C78.2997 102.276 78.3164 102.678 78.2853 103.78C80.4211 104.786 81.8996 106.954 81.8996 109.463C81.8996 111.944 80.4591 114.088 78.3664 115.109C78.326 115.744 78.3087 119.371 78.3026 121.143H79.9062C81.3989 120.238 83.4928 118.97 84.1869 118.555C83.9886 116.204 85.1317 113.838 87.3143 112.581C89.4712 111.339 92.0572 111.514 93.9916 112.816C95.2142 112.206 95.3551 112.097 95.3551 112.097C98.3664 110.363 102.218 111.399 103.955 114.4C105.217 116.581 105.019 119.206 103.664 121.143H110.314L110.892 119.053L120.53 84.2242C120.94 82.7412 122.29 81.7143 123.829 81.7143H123.916H147.572H147.726C150.084 81.7143 151.707 84.0826 150.855 86.2816L145.364 100.935C145.119 101.588 145.602 102.286 146.3 102.286H153H153.448C155.706 102.286 157.103 104.746 155.946 106.685L148.363 120.924C159.458 119.379 168 109.818 168 98.2548C168 89.5266 163.133 81.9395 155.975 78.079Z" fill="white"/>
<path fill-rule="evenodd" clip-rule="evenodd" d="M125.513 86C124.789 86 124.155 86.4861 123.968 87.1854L115.398 119.128C115.125 120.145 115.891 121.143 116.943 121.143H128.484C129.442 121.143 130.186 121.98 130.073 122.932L127.107 147.841C126.894 149.629 129.338 150.352 130.132 148.736L149.724 108.877C150.246 107.814 149.472 106.571 148.288 106.571H141.166C140.049 106.571 139.275 105.456 139.668 104.41L145.761 88.1618C146.153 87.1158 145.38 86 144.263 86H125.513Z" fill="#FFF686"/>
<path fill-rule="evenodd" clip-rule="evenodd" d="M69.3847 152.695V112.734H68.5158C67.0697 112.734 65.8975 111.564 65.8975 110.127C65.8975 108.688 67.0678 107.521 68.5158 107.521H69.3847V103.171C69.3847 101.735 70.5585 100.571 72 100.571C73.4445 100.571 74.6154 101.742 74.6154 103.171V107.521H75.4843C76.9303 107.521 78.1026 108.691 78.1026 110.127C78.1026 111.567 76.9323 112.734 75.4843 112.734H74.6154V152.695H75.4843C76.9303 152.695 78.1026 153.865 78.1026 155.301C78.1026 156.74 76.9323 157.907 75.4843 157.907H74.6154V162.257C74.6154 163.693 73.4415 164.857 72 164.857C70.5556 164.857 69.3847 163.686 69.3847 162.257V157.907H68.5158C67.0697 157.907 65.8975 156.738 65.8975 155.301C65.8975 153.862 67.0678 152.695 68.5158 152.695H69.3847Z" fill="white"/>
<path fill-rule="evenodd" clip-rule="evenodd" d="M55.9429 120.467L90.6726 140.448L91.1071 139.698C91.8301 138.45 93.4328 138.023 94.6812 138.741C95.9321 139.461 96.361 141.054 95.637 142.304L95.2026 143.054L98.9832 145.229C100.231 145.947 100.656 147.542 99.9348 148.786C99.2126 150.032 97.6097 150.457 96.3678 149.743L92.5872 147.568L92.1528 148.318C91.4297 149.566 89.827 149.992 88.5786 149.274C87.3277 148.554 86.8988 146.961 87.6228 145.711L88.0572 144.962L53.3275 124.981L52.8931 125.731C52.1701 126.979 50.5673 127.405 49.3189 126.687C48.068 125.968 47.6391 124.374 48.3631 123.125L48.7976 122.375L45.0169 120.2C43.7691 119.482 43.3445 117.887 44.0653 116.643C44.7875 115.396 46.3904 114.971 47.6323 115.686L51.4129 117.861L51.8474 117.111C52.5704 115.863 54.1731 115.436 55.4215 116.154C56.6724 116.874 57.1013 118.467 56.3773 119.717L55.9429 120.467Z" fill="white"/>
<path fill-rule="evenodd" clip-rule="evenodd" d="M90.6726 124.981L55.9428 144.962L56.3773 145.711C57.1003 146.959 56.6698 148.556 55.4214 149.274C54.1705 149.994 52.5713 149.567 51.8473 148.318L51.4129 147.568L47.6323 149.743C46.3845 150.461 44.786 150.03 44.0652 148.786C43.343 147.539 43.775 145.943 45.0169 145.229L48.7975 143.054L48.3631 142.304C47.64 141.056 48.0705 139.46 49.3189 138.741C50.5698 138.022 52.169 138.448 52.893 139.698L53.3275 140.448L88.0572 120.467L87.6228 119.717C86.8997 118.469 87.3302 116.873 88.5786 116.154C89.8295 115.435 91.4287 115.861 92.1527 117.111L92.5872 117.861L96.3678 115.686C97.6156 114.968 99.2141 115.399 99.9348 116.643C100.657 117.889 100.225 119.485 98.9831 120.2L95.2025 122.375L95.637 123.125C96.36 124.373 95.9295 125.969 94.6811 126.687C93.4302 127.407 91.831 126.98 91.107 125.731L90.6726 124.981Z" fill="white"/>
</svg>
