<svg width="192" height="192" viewBox="0 0 192 192" fill="none" xmlns="http://www.w3.org/2000/svg">
<path fill-rule="evenodd" clip-rule="evenodd" d="M144.8 86.4C162.031 86.4 176 72.4313 176 55.2C176 37.9687 162.031 24 144.8 24C127.569 24 113.6 37.9687 113.6 55.2C113.6 57.4091 115.391 59.2 117.6 59.2C119.809 59.2 121.6 57.4091 121.6 55.2C121.6 42.387 131.987 32 144.8 32C157.613 32 168 42.387 168 55.2C168 68.013 157.613 78.4 144.8 78.4C144.526 78.4 144.258 78.4275 144 78.48C143.741 78.4275 143.474 78.4 143.2 78.4H20C17.7909 78.4 16 80.1909 16 82.4C16 84.6091 17.7909 86.4 20 86.4H143.2C143.474 86.4 143.742 86.3724 144 86.32C144.258 86.3724 144.526 86.4 144.8 86.4ZM16 98.4C16 100.609 17.7909 102.4 20 102.4L113.6 102.4C113.606 102.4 113.611 102.4 113.617 102.4C123.771 102.409 132 110.644 132 120.8C132 130.962 123.762 139.2 113.6 139.2C111.391 139.2 109.6 140.991 109.6 143.2C109.6 145.409 111.391 147.2 113.6 147.2C128.18 147.2 140 135.38 140 120.8C140 107.538 130.222 96.5605 117.482 94.6833C117.023 94.5005 116.523 94.4 116 94.4H113.6H20C17.7909 94.4 16 96.1909 16 98.4ZM20 110.4C17.7909 110.4 16 112.191 16 114.4C16 116.609 17.7909 118.4 20 118.4H92.8C95.0091 118.4 96.8 116.609 96.8 114.4C96.8 112.191 95.0091 110.4 92.8 110.4H20Z" fill="white"/>
</svg>
